<svg xmlns="http://www.w3.org/2000/svg" viewBox="0 0 1024 1024" height="100" width="100" style="transform: scale(-1,-1);">
    <path class="svg1" style="stroke-width: 0; stroke-linecap: round; stroke-linejoin: miter; stroke-miterlimit: 4;" d="M 512 639 C 531 666 562 726 586 794 C 592 814 602 831 616 844 C 627 855 630 866 620 874 C 610 882 594 889 573 895 C 556 900 539 895 522 885 C 503 876 481 867 456 858 C 430 849 395 841 352 833 C 342 832 335 829 333 823 C 330 819 335 814 349 809 C 375 801 404 802 437 815 C 475 831 498 840 505 840 C 521 841 530 832 527 814 C 518 764 507 719 474 670 C 466 660 459 649 450 639 C 417 607 368 576 309 554 C 300 551 300 547 308 541 C 311 539 324 535 349 539 C 400 549 424 562 481 605 C 493 615 502 627 512 639 Z M 664 482 C 672 482 684 485 700 488 C 752 500 782 502 791 498 C 797 495 800 486 802 468 C 808 400 812 338 811 282 C 810 272 807 266 801 263 C 793 261 767 263 723 269 C 716 270 712 268 713 263 C 713 259 720 256 730 249 C 757 232 778 212 799 192 C 809 182 820 179 832 180 C 838 181 846 193 857 215 C 867 238 872 260 871 282 C 867 336 863 388 859 437 C 857 457 859 476 869 491 C 874 501 875 509 866 517 C 855 527 837 534 814 543 C 805 547 785 542 753 530 C 744 527 712 520 658 504 C 651 503 656 482 664 482 Z M 469 436 C 499 470 525 503 550 534 C 576 568 576 568 589 585 C 634 645 668 710 717 766 C 723 774 723 786 719 795 C 698 838 676 858 653 859 C 640 860 636 856 639 837 C 639 833 642 826 644 815 C 647 799 638 769 621 732 C 591 675 561 618 526 571 C 502 540 502 540 490 524 C 468 497 441 468 412 435 C 392 413 392 413 382 402 C 291 312 191 223 105 157 C 100 154 97 151 96 145 C 95 141 97 139 102 139 C 126 140 183 170 268 240 C 342 302 380 340 388 348 C 442 407 442 407 469 436 Z M 160 319 Q 161 361 163 400 C 164 424 164 424 164 436 Q 165 467 167 498 C 168 524 168 524 168 537 Q 168 564 169 590 C 170 610 170 610 170 620 Q 171 642 172 665 Q 173 678 174 689 C 178 719 178 719 180 734 Q 187 758 190 774 Q 194 784 174 799 Q 140 817 116 821 Q 100 824 92 815 Q 85 808 93 793 Q 120 754 121 721 C 122 694 122 694 123 681 Q 123 648 124 613 C 124 593 124 593 124 583 Q 125 555 125 526 C 125 504 125 504 125 493 Q 124 462 123 429 C 123 406 123 406 123 395 Q 122 356 120 313 C 120 300 160 306 160 319 Z M 578 194 C 596 230 614 277 636 331 C 644 352 656 367 671 376 C 676 381 678 389 673 398 C 669 405 652 413 628 428 C 620 433 610 434 594 429 C 567 422 552 421 548 425 C 526 434 471 422 480 400 C 482 393 485 388 489 384 C 497 375 507 374 519 382 C 559 400 584 404 592 389 C 595 383 590 370 586 349 C 571 291 562 265 540 214 C 535 203 528 193 521 182 C 483 130 425 79 351 28 C 342 22 341 15 348 13 C 355 11 369 17 389 26 C 450 57 501 92 539 134 C 545 142 552 151 559 161 C 565 172 572 183 578 194 Z"></path>
</svg>
